<?xml version="1.0" encoding="utf-8"?>
<!-- Generator: Adobe Illustrator 24.1.2, SVG Export Plug-In . SVG Version: 6.00 Build 0)  -->
<svg version="1.1" id="Layer_1" xmlns="http://www.w3.org/2000/svg" xmlns:xlink="http://www.w3.org/1999/xlink" x="0px" y="0px"
	 viewBox="0 0 1080 1080" style="enable-background:new 0 0 1080 1080;" xml:space="preserve">
<style type="text/css">
	.st0{clip-path:url(#SVGID_2_);}
	.st1{fill:#FFFFFF;}
	.st2{clip-path:url(#SVGID_4_);}
	.st3{opacity:0.52;}
	.st4{clip-path:url(#SVGID_6_);}
	.st5{clip-path:url(#SVGID_8_);}
	.st6{clip-path:url(#SVGID_10_);}
	.st7{fill:url(#SVGID_11_);}
</style>
<g>
	<g>
		<defs>
			<rect id="SVGID_1_" y="-106" width="1080" height="1370"/>
		</defs>
		<clipPath id="SVGID_2_">
			<use xlink:href="#SVGID_1_"  style="overflow:visible;"/>
		</clipPath>
		<g class="st0">
			<path class="st1" d="M359.6,751.4V513.8H222.8v237.6h-82V197.7h82V413h135.4V197.7h81v553.7H359.6z M433.3,205.8h-69.2v215.2
				H216.9V205.8h-70.2v537.4h70.2V505.7h148.7v237.6h67.7V205.8z M377.4,727V489.4H205V727h-46.5V222.1H205v215.2h171V222.1h45.5
				V727H377.4z"/>
			<g>
				<defs>
					<rect id="SVGID_3_" y="-106" width="1080" height="1370"/>
				</defs>
				<clipPath id="SVGID_4_">
					<use xlink:href="#SVGID_3_"  style="overflow:visible;"/>
				</clipPath>
				<g class="st2">
					<path class="st1" d="M860.6,198.7l-56.8,337.1l-25-120c-1.7,1.4-3.4,2.7-5.1,4l31.1,148.5L865,206.9h65.2l-94.3,537.4h-66.2
						l-49.9-242.7c-0.7,1-1.5,1.8-2.4,2.6c-0.3,1.8-0.9,3.6-1.8,5.3l49.7,242.9h75.1l97.3-553.7L860.6,198.7z"/>
					<path class="st1" d="M724.8,464.2L779,728h47.4l88.4-504.9h-40l-69.2,410.9L762.9,428c-13.4,10.1-26.5,20.4-36.9,34.7
						C725.5,463.2,725.2,463.7,724.8,464.2"/>
					<g class="st3">
						<g>
							<defs>
								<rect id="SVGID_5_" x="452.7" y="182" width="539.8" height="591.4"/>
							</defs>
							<clipPath id="SVGID_6_">
								<use xlink:href="#SVGID_5_"  style="overflow:visible;"/>
							</clipPath>
							<g class="st4">
								<g>
									<defs>
										<rect id="SVGID_7_" x="452.7" y="182" width="539.8" height="591.4"/>
									</defs>
									<clipPath id="SVGID_8_">
										<use xlink:href="#SVGID_7_"  style="overflow:visible;"/>
									</clipPath>
									<g class="st5">
										
											<image style="overflow:visible;enable-background:new    ;" width="2250" height="2465" xlink:href="620D6911.png"  transform="matrix(0.2399 0 0 0.2399 452.67 182.0415)">
										</image>
									</g>
								</g>
							</g>
						</g>
					</g>
				</g>
			</g>
			<g>
				<defs>
					<path id="SVGID_9_" d="M528.8,404.8c4.1,6,6.4,9.1,9,13.8c3.8,6.9,6.7,12.9,8.7,17.5c2.8,6.4,4.6,11.4,6.3,16.1
						c2.2,6.1,3.9,11.4,5.2,15.3l4.3,15.1c1,4.8,2,9.6,3,14.4c1,6.5,2.1,13.1,3.2,19.7l1.3,20.4l0.4,19.4c0.1,6.8-0.3,13.6-1,20.4
						c-0.4,4.5-1,8.3-2.2,15.9c-0.8,5.3-1.8,11.9-3,18.8c-1.4,8-3.7,19.1-7.2,32.7l-10.7,31.4c-2.9,6.9-5.9,13.8-8.8,20.7
						c-3,6.5-6,13-9,19.5c-3.1,5.8-6.1,11.6-9.2,17.4l-9.7,17c54.1-64.5,108.3-129.1,162.4-193.6c-1.6-3.9-3.1-7.8-4.7-11.7
						c-2.2-4.5-4.3-9-6.5-13.5l-7.4-14.1c-2.5-4.1-4.9-8.3-7.4-12.4l-7-10.4l-8.5-11.8l-8.9-11.3l-10-12c-3.6-3.8-7.3-7.7-10.9-11.5
						l-12.3-12.1L575,424.5l-14.1-10.6l-15.3-10l-15.3-8.3l-12.3-5.5C520.8,393.6,524.5,398.6,528.8,404.8 M490.3,289.2
						c2.2,7,4.2,13.9,6,20.8l5,19.3c4.2,1.8,9.6,4.3,15.8,7.4c11.2,5.6,19.3,10.5,22.1,12.1c8,4.9,13.9,9,19,12.5
						c6.4,4.5,11.1,8,14.5,10.6c4.6,3.5,11.5,8.7,20.1,16c5.3,4.5,11.7,10.1,18.8,16.9l17.4,18l13.4,14.9l13.2,16.9
						c4.6,6,8.7,12.3,12.3,18.8c3,5.3,5.7,10.7,8.2,16.3c2.7,6.1,4.4,9.8,4.8,11c1.7,4.3,2.9,7.7,4.2,11.5
						c1.9,5.6,4.5,13.6,7.7,23.9c-0.5-4-1.2-8.9-2.2-14.3c-1.4-8.1-2.7-14.2-3.1-15.7l-6.7-24.8c-1.4-5.2-3.1-10.3-5.2-15.3
						c-0.5-1.3-1.1-2.9-4.7-11.3c-2.4-5.6-4.5-10.6-5.5-12.9c-5-11.3-10.7-20.5-17.8-31.9c-4.7-7.6-8-12.8-13.1-19.7
						c-5.9-8-10.8-13.5-15.3-18.6c-5.6-6.3-13.1-14.4-22.7-23.4L585,337.9c-10.3-9.2-21.3-17.7-32.8-25.4c-8-5.4-14.3-9.1-19.2-12
						c-10.4-6.3-21.2-11.9-32.4-16.9c-5.7-2.5-10.6-4.3-13.9-5.5C487.9,281.8,489.1,285.4,490.3,289.2 M476.9,239l13.4,3.7l17.3,5.9
						l17.1,7.4l20.2,10.5c2.9,1.5,14.6,8.2,29.7,18.5c6.3,4.3,14.1,9.6,24,17.4c11,8.7,18.9,16.1,21.9,18.9
						c4,3.7,12.8,12.2,23.2,24.2c6.6,7.5,12.8,15.3,18.5,23.4c5,6.9,9.7,14.1,14,21.6c3.5,6.1,6.3,11.4,9.6,18.1
						c2,4.2,4,8.4,6.1,12.6c2.7,5.6,4.4,10,5.6,13.2c2.2,5.5,4.6,11.4,7.1,19c2.4,7.5,4.4,15,6.1,22.7c2,8.6,3.5,17.2,4.4,26
						c0.5,4.8,0.7,8.8,0.8,11.7c3.3-3.9,7.7-8.8,13.2-14.3c1.7-1.7,8.8-8.7,19.9-17.8c9.4-7.7,14.6-11.9,22.5-16.7
						c6.9-4.2,18-10.9,34.1-15c8.1-2,16.5-3.2,24.8-3.4c8.5-0.4,17,0.1,25.4,1.4c5.1,1.3,12.1,3.1,20.2,5.6
						c9.5,2.9,18.9,6.4,28,10.3l24,10.5l24.4,11.2l14.6,7L827.9,388.7c-0.2-2.3-0.6-4.7-1.2-6.9c-0.4-1.7-1-3.4-1.7-5
						c-1-2.3-2.3-4.4-3.9-6.4c-1.7-2.3-3.5-4.4-5.5-6.3c-4-3.8-8.4-7-13.2-9.7c-4.3-2.4-8.9-4.3-13.6-5.8c-3.5-1.1-7-1.9-10.5-2.6
						c-4.5-0.8-9.1-1.3-13.7-1.4c-5.1-0.2-10.3,0.1-15.4,0.9c-4.8,0.8-9.5,2.1-14,3.9c-5.5,2.1-10.7,4.8-15.6,8.1
						c-7.6,5.2-14.1,11.8-19.2,19.4c-5-8.9-11.8-19.9-20.5-32.1c-4-5.6-10.2-14.4-19.4-25.1c-9.3-10.8-19.4-21.1-30-30.6
						c-2.2-2-11.8-10.6-25.5-21c-11-8.4-19.7-14.1-26.2-18.3c-8.5-5.6-19.4-12.4-32.5-19.6c-10-5.5-21-11-33-16.3
						c-9.4-4.2-18.5-7.8-27.2-10.9l-16-5.4l-6.5-2.4C463.7,195.1,471.1,207.3,476.9,239"/>
				</defs>
				<clipPath id="SVGID_10_">
					<use xlink:href="#SVGID_9_"  style="overflow:visible;"/>
				</clipPath>
				<g class="st6">
					
						<linearGradient id="SVGID_11_" gradientUnits="userSpaceOnUse" x1="-208.5849" y1="66.4826" x2="-207.5849" y2="66.4826" gradientTransform="matrix(503.51 0 0 503.51 105488.375 -33001.9844)">
						<stop  offset="0" style="stop-color:#FFD03F"/>
						<stop  offset="0" style="stop-color:#FFD03F"/>
						<stop  offset="0.28" style="stop-color:#FFCD67"/>
						<stop  offset="0.39" style="stop-color:#FFCD6B"/>
						<stop  offset="0.72" style="stop-color:#FBAC3C"/>
						<stop  offset="1" style="stop-color:#F8951D"/>
					</linearGradient>
					<rect x="463.8" y="195.1" class="st7" width="503.5" height="555.1"/>
				</g>
			</g>
			<path class="st1" d="M138.2,884.6v-62.8h10.7v24.7h21.2v-24.7h10.7v62.8h-10.7v-27.5h-21.2v27.5L138.2,884.6z"/>
			<path class="st1" d="M207.3,821.8H218v34c-0.1,3.4,0,6.9,0.4,10.3c0.3,2.5,1.5,4.8,3.4,6.4c3.9,2.8,9,3,13.2,0.7
				c1.6-1.1,2.7-2.6,3.2-4.5c0.6-1.9,0.9-6,0.9-12.2v-34.7h10.7v33c0,8.4-0.5,14.5-1.4,18.3c-0.9,3.7-3.1,7-6.3,9.1
				c-3.3,2.3-7.6,3.5-12.9,3.5c-5.6,0-9.9-1-13-2.9c-3.1-1.9-5.5-4.8-6.8-8.1c-1.4-3.5-2.1-10-2.1-19.3L207.3,821.8z"/>
			<path class="st1" d="M276.4,884.6v-62.8h16.1l9.7,42.9l9.6-42.9H328v62.8h-10v-49.5l-10.6,49.5H297l-10.6-49.5v49.5H276.4z"/>
			<path class="st1" d="M353.9,884.6v-62.8H370l9.7,42.9l9.6-42.9h16.2v62.8h-10v-49.5l-10.6,49.5h-10.4l-10.5-49.5v49.5H353.9z"/>
			<path class="st1" d="M431.1,884.6v-62.8h10.7v62.8H431.1z"/>
			<path class="st1" d="M467.6,884.6v-62.8h10.5l21.8,42v-42h10v62.8h-10.8l-21.5-41v41H467.6z"/>
			<path class="st1" d="M561.5,861.5v-10.6h23.2v25c-2.8,3-6.2,5.3-9.9,6.9c-4.1,1.9-8.5,2.8-12.9,2.9c-10.2,0.4-19.5-5.6-23.5-15
				c-2.5-5.5-3.7-11.5-3.5-17.6c0-6.9,1.2-12.8,3.6-17.7c2-4.5,5.2-8.3,9.3-11c4.1-2.5,8.8-3.8,13.6-3.6c6.4,0,11.5,1.6,15.3,4.7
				s6.3,7.7,7.3,13.8l-10.6,2.3c-0.6-2.9-2.2-5.5-4.4-7.4c-2.2-1.7-4.9-2.6-7.6-2.6c-4.3-0.1-8.4,1.8-11.1,5.2
				c-2.8,3.5-4.2,8.7-4.2,15.8c0,7.6,1.5,13.3,4.6,17.3c2.5,3.3,6.5,5.2,10.7,5.1c2.3,0,4.5-0.5,6.5-1.4c2.2-0.9,4.2-2.3,6-3.9v-7.9
				H561.5z"/>
			<path class="st1" d="M653.7,884.6l-12.8-62.8H652l8,43.2l9.8-43.2h12.8l9.4,43.9l8.2-43.9H711l-13,62.8h-11.4l-10.7-47l-10.6,47
				H653.7z"/>
			<path class="st1" d="M731.6,884.6v-62.8h10.7v62.8H731.6z"/>
			<path class="st1" d="M768,884.6v-62.8h22.7c5.8,0,9.9,0.6,12.4,1.7c2.6,1.3,4.8,3.3,6.1,5.9c1.7,3.1,2.5,6.5,2.4,10
				c0,4.9-1.2,8.9-3.7,11.9c-2.6,3.1-6.4,5.1-10.4,5.7c2.2,1.5,4.1,3.2,5.7,5.2c2.3,3.2,4.4,6.7,6.2,10.2l6.5,12.3h-12.8l-7.8-13.7
				c-1.7-3.2-3.6-6.3-5.7-9.3c-0.8-1.1-1.9-2-3.2-2.6c-1.7-0.6-3.6-0.8-5.4-0.7h-2.2v26.2L768,884.6z M778.7,848.3h8
				c4.9,0,8-0.2,9.3-0.6c1.3-0.4,2.5-1.3,3.2-2.5c0.9-1.5,1.3-3.2,1.2-5c0.1-1.7-0.3-3.4-1.2-4.8c-0.8-1.2-2-2.1-3.4-2.5
				c-1-0.3-3.9-0.5-8.7-0.5h-8.4L778.7,848.3z"/>
			<path class="st1" d="M837.2,884.6v-62.8h39.6v10.6H848v13.9h26.8v10.6H848v17h29.8v10.6H837.2z"/>
			<path class="st1" d="M899.6,864.1l10.5-1.2c1.2,8,5.1,12,11.6,12c2.8,0.2,5.5-0.7,7.7-2.5c1.8-1.5,2.8-3.8,2.8-6.1
				c0-1.3-0.3-2.6-1-3.6c-0.8-1.1-1.8-1.9-3-2.5c-3.2-1.3-6.4-2.3-9.7-3.2c-4.6-1.3-8-2.8-10.1-4.4c-2.2-1.6-3.9-3.7-5.1-6.2
				c-1.3-2.6-1.9-5.4-1.9-8.3c0-3.2,0.8-6.4,2.5-9.2c1.6-2.7,3.9-4.9,6.7-6.2c3.3-1.5,6.9-2.2,10.5-2.1c6.3,0,11.2,1.6,14.7,4.9
				c3.5,3.3,5.4,8,5.6,14.1l-10.8,0.5c-0.5-3.4-1.5-5.7-3.1-7.1s-3.8-2-6.7-2c-2.4-0.2-4.7,0.5-6.7,1.8c-1.5,1-2.3,2.6-2.3,4.4
				c0,1.7,0.8,3.3,2.1,4.3c1.4,1.2,4.7,2.5,9.8,3.8c5.4,1.5,9.3,3.1,11.7,4.8c2.4,1.6,4.3,3.9,5.5,6.5c1.3,3,2,6.3,1.9,9.6
				c0.1,5.1-1.7,10-5.2,13.8c-3.5,3.7-8.9,5.6-16.3,5.6C908.4,885.6,901.1,878.5,899.6,864.1z"/>
		</g>
	</g>
</g>
</svg>
